<svg width="650.000000" height="650.000000" viewBox="0 0 650 650" fill="none" xmlns="http://www.w3.org/2000/svg" xmlns:xlink="http://www.w3.org/1999/xlink">
	<desc>
			Created with Pixso.
	</desc>
	<defs>
		<clipPath id="clip5_1">
			<rect id="cancel-order" width="650.000000" height="650.000061" fill="white" fill-opacity="0"/>
		</clipPath>
	</defs>
	<g clip-path="url(#clip5_1)">
		<path id="path" d="M523.26 572.86C450.15 624.1 342.43 625.24 245.64 600.87C148.85 576.5 62.53 526.4 30.19 455.34C-2.15 384.28 19.03 292.5 61.16 215.07C103.3 137.64 166.38 74.32 249.05 47.45C331.73 20.57 433.76 30.14 507.77 81.61C581.56 132.85 627.11 226 630.76 323.25C634.4 420.5 596.14 521.62 523.26 572.86Z" fill="#FFFFFF" fill-opacity="1.000000" fill-rule="nonzero"/>
		<path id="path" d="M338.1 256.06C332.64 256.06 328.08 251.51 328.08 246.04L328.08 213.25C328.08 209.37 324.89 205.96 320.79 205.5C320.34 205.5 320.11 205.5 319.65 205.5L290.73 201.63C286.86 201.63 283.44 205.05 283.44 209.37L283.44 242.17C283.44 247.64 278.89 252.19 273.42 252.19C267.96 252.19 263.4 247.64 263.4 242.17L263.4 209.37C263.4 194.12 275.93 181.82 290.96 181.82C291.64 181.82 292.78 181.82 293.46 181.82L321.93 185.23C336.51 185.92 348.12 198.22 348.12 212.79L348.12 245.59C348.12 251.51 343.57 256.06 338.1 256.06Z" fill="#E7E7E7" fill-opacity="1.000000" fill-rule="nonzero"/>
		<path id="path" d="M328.08 246.04L328.08 213.25C328.08 209.37 324.89 205.96 320.79 205.5C320.34 205.5 320.11 205.5 319.65 205.5L290.73 201.63C286.86 201.63 283.44 205.05 283.44 209.37L283.44 242.17C283.44 247.64 278.89 252.19 273.42 252.19C267.96 252.19 263.4 247.64 263.4 242.17L263.4 209.37C263.4 194.12 275.93 181.82 290.96 181.82C291.64 181.82 292.78 181.82 293.46 181.82L321.93 185.23C336.51 185.92 348.12 198.22 348.12 212.79L348.12 245.59C348.12 251.51 343.57 256.06 338.1 256.06C332.64 256.06 328.08 251.51 328.08 246.04Z" stroke="#222221" stroke-opacity="1.000000" stroke-width="3.000000" stroke-linejoin="round"/>
		<path id="path" d="M387.07 241.49C381.6 241.49 377.05 236.93 377.05 231.47L377.05 198.67C377.05 194.8 373.86 191.38 369.76 190.93C369.3 190.93 369.07 190.93 368.62 190.93L339.69 187.06C335.82 187.06 332.41 190.47 332.41 194.8L332.41 227.82C332.41 233.29 327.85 237.84 322.39 237.84C316.92 237.84 312.37 233.29 312.37 227.82L312.37 195.03C312.37 179.77 324.89 167.47 339.92 167.47C340.61 167.47 341.74 167.47 342.43 167.47L370.9 170.89C385.47 171.57 397.09 183.87 397.09 198.44L397.09 231.24C396.86 236.93 392.76 241.49 387.07 241.49Z" fill="#E7E7E7" fill-opacity="1.000000" fill-rule="nonzero"/>
		<path id="path" d="M377.05 231.47L377.05 198.67C377.05 194.8 373.86 191.38 369.76 190.93C369.3 190.93 369.07 190.93 368.62 190.93L339.69 187.06C335.82 187.06 332.41 190.47 332.41 194.8L332.41 227.82C332.41 233.29 327.85 237.84 322.39 237.84C316.92 237.84 312.37 233.29 312.37 227.82L312.37 195.03C312.37 179.77 324.89 167.47 339.92 167.47C340.61 167.47 341.74 167.47 342.43 167.47L370.9 170.89C385.47 171.57 397.09 183.87 397.09 198.44L397.09 231.24C396.86 236.93 392.76 241.49 387.07 241.49C381.6 241.49 377.05 236.93 377.05 231.47Z" stroke="#222221" stroke-opacity="1.000000" stroke-width="3.000000" stroke-linejoin="round"/>
		<path id="path" d="M461.77 462.17C462 465.36 459.49 468.09 456.3 468.55L277.52 485.86L286.4 224.86C286.63 221.44 289.59 218.71 293.01 219.17L443.78 233.74C446.74 233.97 449.02 236.48 449.24 239.44L461.77 462.17Z" fill="#FFC003" fill-opacity="1.000000" fill-rule="nonzero"/>
		<path id="path" d="M456.3 468.55L277.52 485.86L286.4 224.86C286.63 221.44 289.59 218.71 293.01 219.17L443.78 233.74C446.74 233.97 449.02 236.48 449.24 239.44L461.77 462.17C462 465.36 459.49 468.09 456.3 468.55Z" stroke="#222221" stroke-opacity="1.000000" stroke-width="3.000000" stroke-linejoin="round"/>
		<path id="path" d="M277.52 485.86L208.97 464C206.24 463.08 204.64 460.58 204.87 457.62L224.23 240.35C224.46 237.84 226.28 235.79 228.56 235.11L278.66 220.76C282.53 219.62 286.4 222.59 286.4 226.68L277.52 485.86Z" fill="#FFC003" fill-opacity="1.000000" fill-rule="nonzero"/>
		<path id="path" d="M208.97 464C206.24 463.08 204.64 460.58 204.87 457.62L224.23 240.35C224.46 237.84 226.28 235.79 228.56 235.11L278.66 220.76C282.53 219.62 286.4 222.59 286.4 226.68L277.52 485.86L208.97 464Z" stroke="#222221" stroke-opacity="1.000000" stroke-width="3.000000" stroke-linejoin="round"/>
		<ellipse id="circle" cx="433.303711" cy="433.709229" rx="57.164330" ry="57.164318" fill="#E7E7E7" fill-opacity="1.000000"/>
		<ellipse id="circle" cx="433.303711" cy="433.709229" rx="57.164330" ry="57.164318" stroke="#222221" stroke-opacity="1.000000" stroke-width="3.000000" stroke-linejoin="round"/>
		<line id="line" x1="453.008789" y1="453.521240" x2="413.298828" y2="413.663086" stroke="#222221" stroke-opacity="1.000000" stroke-width="3.000000"/>
		<line id="line" x1="453.008789" y1="413.663330" x2="413.298828" y2="453.521484" stroke="#222221" stroke-opacity="1.000000" stroke-width="3.000000"/>
	</g>
</svg>
